<?xml version="1.0" encoding="UTF-8"?>
<svg id="Camada_1" data-name="Camada 1" xmlns="http://www.w3.org/2000/svg" xmlns:xlink="http://www.w3.org/1999/xlink" viewBox="0 0 1080 1440">
  <defs>
    <style>
      .cls-1 {
        fill: #3c3c3b;
      }

      .cls-1, .cls-2, .cls-3, .cls-4, .cls-5, .cls-6 {
        stroke-width: 0px;
      }

      .cls-7 {
        stroke-width: 8px;
      }

      .cls-7, .cls-8 {
        fill: none;
        stroke: #3c3c3b;
        stroke-linecap: round;
        stroke-linejoin: round;
      }

      .cls-8 {
        stroke-width: 5px;
      }

      .cls-2 {
        fill: #ededed;
      }

      .cls-3 {
        fill: url(#Gradiente_sem_nome_69);
      }

      .cls-4 {
        fill: url(#Gradiente_sem_nome_35);
      }

      .cls-5 {
        fill: url(#Gradiente_sem_nome_35-2);
      }

      .cls-6 {
        fill: url(#Gradiente_sem_nome_65);
      }
    </style>
    <radialGradient id="Gradiente_sem_nome_65" data-name="Gradiente sem nome 65" cx="540" cy="512.69" fx="540" fy="512.69" r="316.67" gradientUnits="userSpaceOnUse">
      <stop offset="0" stop-color="#ffe400"/>
      <stop offset=".11" stop-color="#fddc00"/>
      <stop offset=".28" stop-color="#fac800"/>
      <stop offset=".48" stop-color="#f6a600"/>
      <stop offset=".49" stop-color="#f6a600"/>
      <stop offset=".55" stop-color="#e49a11"/>
      <stop offset=".68" stop-color="#b87d40"/>
      <stop offset=".86" stop-color="#704e89"/>
      <stop offset=".87" stop-color="#6d4c8e"/>
      <stop offset=".99" stop-color="#385ea8"/>
    </radialGradient>
    <linearGradient id="Gradiente_sem_nome_69" data-name="Gradiente sem nome 69" x1="541.25" y1="1148.12" x2="541.25" y2="728.63" gradientUnits="userSpaceOnUse">
      <stop offset="0" stop-color="#ffe400"/>
      <stop offset=".05" stop-color="#fddc00"/>
      <stop offset=".12" stop-color="#fac800"/>
      <stop offset=".21" stop-color="#f6a600"/>
      <stop offset=".21" stop-color="#f6a600"/>
      <stop offset=".29" stop-color="#e49a11"/>
      <stop offset=".46" stop-color="#b87d40"/>
      <stop offset=".69" stop-color="#704e89"/>
      <stop offset=".7" stop-color="#6d4c8e"/>
      <stop offset=".99" stop-color="#385ea8"/>
    </linearGradient>
    <linearGradient id="Gradiente_sem_nome_35" data-name="Gradiente sem nome 35" x1="-6308.77" y1="1393.8" x2="-6429.21" y2="1397.99" gradientTransform="translate(6631.44 -1128.13) scale(1 1.44)" gradientUnits="userSpaceOnUse">
      <stop offset=".07" stop-color="#ffe400"/>
      <stop offset=".15" stop-color="#fddc00"/>
      <stop offset=".27" stop-color="#fac800"/>
      <stop offset=".41" stop-color="#f6a600"/>
      <stop offset=".41" stop-color="#f6a600"/>
      <stop offset=".48" stop-color="#e49a10"/>
      <stop offset=".6" stop-color="#b57b3c"/>
      <stop offset=".78" stop-color="#6c4b82"/>
      <stop offset=".82" stop-color="#5c4192"/>
      <stop offset=".91" stop-color="#594293"/>
      <stop offset=".95" stop-color="#524897"/>
      <stop offset=".98" stop-color="#46529f"/>
      <stop offset="1" stop-color="#385ea8"/>
    </linearGradient>
    <linearGradient id="Gradiente_sem_nome_35-2" data-name="Gradiente sem nome 35" x1="-7060.08" y1="717.3" x2="-6939.6" y2="720.34" gradientTransform="translate(7810.1 -161.53) scale(1 1.44)" xlink:href="#Gradiente_sem_nome_35"/>
  </defs>
  <g>
    <path class="cls-6" d="M323.83,627.78l60.57-107.04c2.82-4.99,2.82-11.1,0-16.09l-60.57-107.04c-37.04-65.45,35.63-138.12,101.08-101.08l107.04,60.57c4.99,2.82,11.1,2.82,16.09,0l107.04-60.57c65.45-37.04,138.12,35.63,101.08,101.08l-60.57,107.04c-2.82,4.99-2.82,11.1,0,16.09l60.57,107.04c37.04,65.45-35.63,138.12-101.08,101.08l-107.04-60.57c-4.99-2.82-11.1-2.82-16.09,0l-107.04,60.57c-65.45,37.04-138.12-35.63-101.08-101.08Z"/>
    <g>
      <path class="cls-7" d="M501.09,574.47c2.61,2.58,16.11,15.39,37.08,15.24,24.44-.17,38.88-17.78,40.73-20.12"/>
      <path class="cls-8" d="M578.22,558.08c-.22,2.09-.7,9.46,5.49,13.09,6.71,3.93,16.54.72,18.88-.09"/>
      <path class="cls-8" d="M505.04,557.87c.28,2.09.99,9.44-5.09,13.25-6.59,4.13-16.51,1.23-18.87.49"/>
    </g>
    <g>
      <path class="cls-2" d="M450.02,552.68c1.35-1.82,2.85-3.52,4.48-5.1-6.9-7.21-11.24-17.56-11.24-29.06,0-21.77,15.51-39.42,34.63-39.42s34.63,17.65,34.63,39.42c0,8.93-2.61,17.16-7,23.77,1.93,1.22,3.76,2.59,5.46,4.11,4.23-6.32,6.7-13.92,6.7-22.1v-11.79c0-21.98-17.82-39.79-39.79-39.79h0c-21.98,0-39.79,17.82-39.79,39.79v11.79c0,11.12,4.56,21.16,11.91,28.38Z"/>
      <path class="cls-1" d="M483.38,536.19c8.33,0,16.09,2.39,22.64,6.51,4.49-6.72,7.16-15.09,7.16-24.16,0-22.14-15.85-40.08-35.4-40.08s-35.4,17.95-35.4,40.08c0,11.7,4.43,22.22,11.49,29.55,7.64-7.36,18.05-11.9,29.52-11.9Z"/>
      <circle class="cls-2" cx="464.91" cy="488.75" r="8.74"/>
      <circle class="cls-2" cx="452.27" cy="502.37" r="3.9"/>
    </g>
    <g>
      <path class="cls-2" d="M570.52,549.88c1.58-1.63,3.29-3.12,5.1-4.47-5.91-8.04-8.87-18.86-7.38-30.27,2.82-21.59,20.47-37.09,39.44-34.62,18.97,2.47,32.06,21.98,29.25,43.57-1.15,8.85-4.81,16.68-10.02,22.66,1.76,1.46,3.39,3.06,4.88,4.78,5.01-5.72,8.45-12.94,9.5-21.05l1.52-11.69c2.84-21.79-12.52-41.76-34.31-44.6h0c-21.79-2.84-41.76,12.52-44.6,34.31l-1.52,11.69c-1.44,11.02,1.79,21.58,8.14,29.69Z"/>
      <path class="cls-1" d="M605.73,537.84c8.26,1.08,15.64,4.45,21.61,9.38,5.32-6.08,9.05-14.03,10.22-23.03,2.86-21.95-10.54-41.8-29.92-44.33-19.39-2.53-37.43,13.22-40.29,35.17-1.51,11.6,1.52,22.61,7.57,30.79,8.53-6.31,19.43-9.46,30.81-7.98Z"/>
      <circle class="cls-2" cx="593.54" cy="488.42" r="8.74"/>
      <circle class="cls-2" cx="579.25" cy="500.29" r="3.9"/>
    </g>
  </g>
  <path class="cls-3" d="M767.8,906.58c.23,2.87.35,5.77.35,8.7v125.07c0,59.52-48.25,107.77-107.78,107.77-50.89,0-93.54-35.28-104.83-82.71-4.72.22-9.48.33-14.28.33s-9.56-.11-14.29-.33c-11.29,47.43-53.95,82.71-104.83,82.71-59.52,0-107.77-48.25-107.77-107.77v-125.07c0-2.93.12-5.83.35-8.7-.23-3.11-.35-6.24-.35-9.39,0-93.09,101.58-168.55,226.9-168.55s226.9,75.46,226.9,168.55c0,3.15-.12,6.28-.35,9.39Z"/>
  <rect class="cls-4" x="209.31" y="795.55" width="90.89" height="173.53" rx="45.45" ry="45.45" transform="translate(347.14 1796.02) rotate(-169.67)"/>
  <rect class="cls-5" x="781.05" y="787.38" width="90.89" height="173.53" rx="45.45" ry="45.45" transform="translate(1774.03 1615.38) rotate(171.43)"/>
</svg>