<?xml version="1.0" encoding="UTF-8"?>
<svg id="Camada_1" data-name="Camada 1" xmlns="http://www.w3.org/2000/svg" xmlns:xlink="http://www.w3.org/1999/xlink" viewBox="0 0 1080 1440">
  <defs>
    <style>
      .cls-1 {
        fill: #3c3c3b;
      }

      .cls-1, .cls-2, .cls-3, .cls-4, .cls-5, .cls-6 {
        stroke-width: 0px;
      }

      .cls-2 {
        fill: #ededed;
      }

      .cls-3 {
        fill: url(#Gradiente_sem_nome_69);
      }

      .cls-4 {
        fill: url(#Gradiente_sem_nome_35);
      }

      .cls-5 {
        fill: url(#Gradiente_sem_nome_35-2);
      }

      .cls-6 {
        fill: url(#Gradiente_sem_nome_65);
      }
    </style>
    <radialGradient id="Gradiente_sem_nome_65" data-name="Gradiente sem nome 65" cx="540" cy="515.22" fx="540" fy="515.22" r="316.67" gradientUnits="userSpaceOnUse">
      <stop offset="0" stop-color="#ffe400"/>
      <stop offset=".11" stop-color="#fddc00"/>
      <stop offset=".28" stop-color="#fac800"/>
      <stop offset=".48" stop-color="#f6a600"/>
      <stop offset=".49" stop-color="#f6a600"/>
      <stop offset=".55" stop-color="#e49a11"/>
      <stop offset=".68" stop-color="#b87d40"/>
      <stop offset=".86" stop-color="#704e89"/>
      <stop offset=".87" stop-color="#6d4c8e"/>
      <stop offset=".99" stop-color="#385ea8"/>
    </radialGradient>
    <linearGradient id="Gradiente_sem_nome_69" data-name="Gradiente sem nome 69" x1="541.25" y1="1148.12" x2="541.25" y2="728.63" gradientUnits="userSpaceOnUse">
      <stop offset="0" stop-color="#ffe400"/>
      <stop offset=".05" stop-color="#fddc00"/>
      <stop offset=".12" stop-color="#fac800"/>
      <stop offset=".21" stop-color="#f6a600"/>
      <stop offset=".21" stop-color="#f6a600"/>
      <stop offset=".29" stop-color="#e49a11"/>
      <stop offset=".46" stop-color="#b87d40"/>
      <stop offset=".69" stop-color="#704e89"/>
      <stop offset=".7" stop-color="#6d4c8e"/>
      <stop offset=".99" stop-color="#385ea8"/>
    </linearGradient>
    <linearGradient id="Gradiente_sem_nome_35" data-name="Gradiente sem nome 35" x1="-8490.94" y1="1530.79" x2="-8611.38" y2="1534.99" gradientTransform="translate(8813.6 -1325.4) scale(1 1.44)" gradientUnits="userSpaceOnUse">
      <stop offset=".07" stop-color="#ffe400"/>
      <stop offset=".15" stop-color="#fddc00"/>
      <stop offset=".27" stop-color="#fac800"/>
      <stop offset=".41" stop-color="#f6a600"/>
      <stop offset=".41" stop-color="#f6a600"/>
      <stop offset=".48" stop-color="#e49a10"/>
      <stop offset=".6" stop-color="#b57b3c"/>
      <stop offset=".78" stop-color="#6c4b82"/>
      <stop offset=".82" stop-color="#5c4192"/>
      <stop offset=".91" stop-color="#594293"/>
      <stop offset=".95" stop-color="#524897"/>
      <stop offset=".98" stop-color="#46529f"/>
      <stop offset="1" stop-color="#385ea8"/>
    </linearGradient>
    <linearGradient id="Gradiente_sem_nome_35-2" data-name="Gradiente sem nome 35" x1="-9247.79" y1="603.47" x2="-9127.32" y2="606.5" gradientTransform="translate(9997.82 2.39) scale(1 1.44)" xlink:href="#Gradiente_sem_nome_35"/>
  </defs>
  <g>
    <path class="cls-6" d="M323.83,630.31l60.57-107.04c2.82-4.99,2.82-11.1,0-16.09l-60.57-107.04c-37.04-65.45,35.63-138.12,101.08-101.08l107.04,60.57c4.99,2.82,11.1,2.82,16.09,0l107.04-60.57c65.45-37.04,138.12,35.63,101.08,101.08l-60.57,107.04c-2.82,4.99-2.82,11.1,0,16.09l60.57,107.04c37.04,65.45-35.63,138.12-101.08,101.08l-107.04-60.57c-4.99-2.82-11.1-2.82-16.09,0l-107.04,60.57c-65.45,37.04-138.12-35.63-101.08-101.08Z"/>
    <g>
      <g>
        <rect class="cls-2" x="436.68" y="469.54" width="79.59" height="91.38" rx="39.79" ry="39.79"/>
        <ellipse class="cls-1" cx="476.47" cy="515.35" rx="34.63" ry="39.42"/>
        <circle class="cls-2" cx="456.83" cy="501.23" r="6.89"/>
        <circle class="cls-2" cx="451.94" cy="516.98" r="3.9"/>
      </g>
      <g>
        <rect class="cls-2" x="563.73" y="469.54" width="79.59" height="91.38" rx="39.79" ry="39.79"/>
        <ellipse class="cls-1" cx="603.53" cy="515.35" rx="34.63" ry="39.42"/>
        <circle class="cls-2" cx="583.88" cy="501.23" r="6.89"/>
        <circle class="cls-2" cx="579" cy="516.98" r="3.9"/>
      </g>
    </g>
    <circle class="cls-1" cx="554.15" cy="573.47" r="9.58"/>
  </g>
  <path class="cls-3" d="M767.8,906.58c.23,2.87.35,5.77.35,8.7v125.07c0,59.52-48.25,107.77-107.78,107.77-50.89,0-93.54-35.28-104.83-82.71-4.72.22-9.48.33-14.28.33s-9.56-.11-14.29-.33c-11.29,47.43-53.95,82.71-104.83,82.71-59.52,0-107.77-48.25-107.77-107.77v-125.07c0-2.93.12-5.83.35-8.7-.23-3.11-.35-6.24-.35-9.39,0-93.09,101.58-168.55,226.9-168.55s226.9,75.46,226.9,168.55c0,3.15-.12,6.28-.35,9.39Z"/>
  <rect class="cls-4" x="209.31" y="795.55" width="90.89" height="173.53" rx="45.45" ry="45.45" transform="translate(347.14 1796.02) rotate(-169.67)"/>
  <rect class="cls-5" x="781.05" y="787.38" width="90.89" height="173.53" rx="45.45" ry="45.45" transform="translate(1774.03 1615.38) rotate(171.43)"/>
</svg>